<svg width="16" height="17" viewBox="0 0 16 17" fill="none" xmlns="http://www.w3.org/2000/svg">
<path d="M7.3335 5.16634H8.66683V6.49967H7.3335V5.16634ZM7.3335 7.83301H8.66683V11.833H7.3335V7.83301ZM8.00016 1.83301C4.32016 1.83301 1.3335 4.81967 1.3335 8.49967C1.3335 12.1797 4.32016 15.1663 8.00016 15.1663C11.6802 15.1663 14.6668 12.1797 14.6668 8.49967C14.6668 4.81967 11.6802 1.83301 8.00016 1.83301ZM8.00016 13.833C5.06016 13.833 2.66683 11.4397 2.66683 8.49967C2.66683 5.55967 5.06016 3.16634 8.00016 3.16634C10.9402 3.16634 13.3335 5.55967 13.3335 8.49967C13.3335 11.4397 10.9402 13.833 8.00016 13.833Z" fill="white"/>
</svg>
