<svg width="48" height="49" viewBox="0 0 48 49" fill="none" xmlns="http://www.w3.org/2000/svg">
<path fill-rule="evenodd" clip-rule="evenodd" d="M11.0306 11.5595C12.1678 11.4949 13.3038 11.5001 14.441 11.5001C14.4489 11.5001 20.2038 11.5001 20.2038 11.5001C21.3632 11.5001 22.4992 11.4949 23.6358 11.5595C24.6691 11.6175 25.6757 11.7414 26.6776 12.0182C28.7868 12.6001 30.6286 13.8156 31.96 15.5388C33.2835 17.2511 33.9998 19.3472 33.9998 21.4995C33.9998 23.6543 33.2835 25.7491 31.96 27.4614C30.6286 29.184 28.7868 30.4001 26.6776 30.982C25.6757 31.2588 24.6691 31.382 23.6358 31.4407C22.4992 31.5053 21.3632 31.4995 20.226 31.4995C20.2181 31.4995 14.4619 31.5001 14.4619 31.5001C13.3038 31.4995 12.1678 31.5053 11.0306 31.4407C9.99788 31.382 8.99134 31.2588 7.98938 30.982C5.88023 30.4001 4.0384 29.184 2.70703 27.4614C1.3835 25.7491 0.666504 23.6543 0.666504 21.5001C0.666504 19.3472 1.3835 17.2511 2.70703 15.5388C4.0384 13.8156 5.88023 12.6001 7.98938 12.0182C8.99134 11.7414 9.99788 11.6175 11.0306 11.5595Z" fill="#1849D6"/>
<g filter="url(#filter0_dd_212_904)">
<path fill-rule="evenodd" clip-rule="evenodd" d="M23.9997 30.1663C28.7861 30.1663 32.6663 26.2861 32.6663 21.4997C32.6663 16.7132 28.7861 12.833 23.9997 12.833C19.2132 12.833 15.333 16.7132 15.333 21.4997C15.333 26.2861 19.2132 30.1663 23.9997 30.1663Z" fill="white"/>
</g>
<defs>
<filter id="filter0_dd_212_904" x="0.333008" y="0.833008" width="47.3335" height="47.333" filterUnits="userSpaceOnUse" color-interpolation-filters="sRGB">
<feFlood flood-opacity="0" result="BackgroundImageFix"/>
<feColorMatrix in="SourceAlpha" type="matrix" values="0 0 0 0 0 0 0 0 0 0 0 0 0 0 0 0 0 0 127 0" result="hardAlpha"/>
<feOffset dy="3"/>
<feGaussianBlur stdDeviation="7.5"/>
<feColorMatrix type="matrix" values="0 0 0 0 0 0 0 0 0 0 0 0 0 0 0 0 0 0 0.15 0"/>
<feBlend mode="normal" in2="BackgroundImageFix" result="effect1_dropShadow_212_904"/>
<feColorMatrix in="SourceAlpha" type="matrix" values="0 0 0 0 0 0 0 0 0 0 0 0 0 0 0 0 0 0 127 0" result="hardAlpha"/>
<feOffset dy="3"/>
<feGaussianBlur stdDeviation="6"/>
<feColorMatrix type="matrix" values="0 0 0 0 0 0 0 0 0 0 0 0 0 0 0 0 0 0 0.06 0"/>
<feBlend mode="normal" in2="effect1_dropShadow_212_904" result="effect2_dropShadow_212_904"/>
<feBlend mode="normal" in="SourceGraphic" in2="effect2_dropShadow_212_904" result="shape"/>
</filter>
</defs>
</svg>
